<svg width="582" height="771" viewBox="0 0 582 771" fill="none" xmlns="http://www.w3.org/2000/svg">
<ellipse cx="305.094" cy="264.923" rx="270.226" ry="264.923" fill="white" fill-opacity="0.1"/>
<ellipse cx="289.984" cy="264.343" rx="220.249" ry="213.329" fill="white" fill-opacity="0.1"/>
<ellipse cx="293.471" cy="264.343" rx="170.272" ry="164.635" fill="white" fill-opacity="0.1"/>
<path d="M569.198 680.429C550.232 660.696 515.003 634.226 464.423 621.398C408.907 607.319 184.748 639.341 29.1523 665.545C2.67789 670.182 -29.7143 693.516 52.512 749.757C131.177 803.561 413.757 743.092 562.631 701.557C572.332 698.85 576.177 687.69 569.198 680.429Z" fill="#060606" fill-opacity="0.5"/>
<path d="M421.712 503.292H305.169V687.758H421.712V503.292Z" fill="#B2B2B2"/>
<path d="M305.624 503.292H189.081V687.758H305.624V503.292Z" fill="#D1D1D1"/>
<path d="M244.565 279.595L239.597 378.751L216.235 451.463H258.294L280.139 388.815L286.965 317.616L244.565 279.595Z" fill="#F7EBE7"/>
<path d="M243.389 626.169L251.846 665.475L223.441 668.842L215.363 630.141L243.389 626.169Z" fill="#FCC9A7"/>
<path d="M253.553 661.919C252.833 659.801 250.557 659.044 249.002 660.406C245.968 663.092 240.507 666.383 232.429 665.589C224.048 664.757 220.9 659.839 219.686 656.283C219.042 654.429 217.259 653.483 215.666 654.277L164.809 679.776C161.737 681.327 159.31 684.202 158.096 687.796C156.959 691.163 159.234 694.795 162.42 694.719L250.292 692.298C253.743 692.222 256.398 688.817 256.094 684.883L254.653 665.589C254.615 665.286 254.577 664.946 254.463 664.643L253.553 661.919Z" fill="white"/>
<path d="M242.896 436.104H176.945C176.945 436.104 136.783 433.872 134.393 466.747C132.004 499.623 193.291 593.672 202.886 643.912L258.028 639.372L218.321 502.763L317.077 503.33C324.397 503.368 331.678 502.309 338.581 499.926C357.808 493.267 387.162 483.734 371.158 430.921L242.896 436.104Z" fill="#092330"/>
<path d="M293.791 626.32L307.217 673.307L278.811 676.674L265.765 630.293L293.791 626.32Z" fill="#FCC9A7"/>
<path d="M308.923 669.75C308.203 667.632 305.927 666.875 304.372 668.237C301.338 670.923 295.877 674.215 287.799 673.42C279.418 672.588 276.27 667.67 275.056 664.114C274.412 662.26 272.629 661.314 271.036 662.109L220.179 687.607C217.107 689.158 214.68 692.033 213.466 695.627C212.329 698.994 214.604 702.626 217.79 702.55L307.179 700.129C310.63 700.053 313.285 696.649 312.981 692.714L309.985 673.42C309.947 673.117 309.909 672.777 309.796 672.474L308.923 669.75Z" fill="white"/>
<path d="M321.704 240.63C323.183 242.067 389.362 258.902 389.362 258.902L375.216 296.393L302.855 290.945L321.704 240.63Z" fill="#F7EBE7"/>
<path d="M294.398 249.671C294.398 249.671 251.278 265.371 244.565 279.595C246.879 299.684 253.971 319.016 265.651 335.548C279.987 355.826 297.698 390.668 294.436 436.104H419.095C419.095 436.104 412.383 308.272 375.482 259.204L294.398 249.671Z" fill="#F7EBE7"/>
<path d="M308.544 269.949C320.794 267.452 328.682 255.535 326.179 243.315L318.859 207.565L274.526 216.606L281.845 252.357C284.348 264.577 296.294 272.445 308.544 269.949Z" fill="#FCC9A7"/>
<path d="M321.894 220.049C321.894 220.049 317.229 249.028 294.626 250.768C274.829 252.282 276.725 223.719 276.725 223.719L321.894 220.049Z" fill="#F4BE9A"/>
<path d="M296.408 234.879L300.314 233.971C319.921 229.431 332.133 209.91 327.582 190.389L322.424 168.107C317.873 148.548 298.304 136.366 278.735 140.906L274.829 141.814C255.221 146.354 243.01 165.875 247.561 185.396L252.719 207.678C257.269 227.237 276.839 239.419 296.408 234.879Z" fill="#FCC9A7"/>
<path d="M315.295 199.658C314.384 201.209 313.512 203.555 313.208 207.111C312.867 211.613 310.592 215.888 306.799 218.384C295.915 225.572 287.609 207.375 271.529 210.591C271.529 210.591 265.234 211.537 263.982 218.536C262.731 225.497 253.97 213.315 252.036 204.992C250.102 196.669 249.116 246.19 288.709 241.991C288.709 241.991 308.696 241.348 322.159 221.033C323.638 218.801 324.51 216.19 324.586 213.504C324.7 209.532 324.131 203.517 320.338 199.204C319.011 197.615 316.356 197.842 315.295 199.658Z" fill="#1C2226"/>
<path d="M315.332 188.422C315.332 188.422 298.228 182.785 301.111 157.854C301.111 157.854 258.635 197.956 227.157 168.523C227.157 168.523 241.228 164.778 247.03 155.168C257.611 137.652 288.027 113.516 312.374 141.436C312.374 141.436 341.994 136.858 333.499 182.369L315.332 188.422Z" fill="#1C2226"/>
<path d="M315.332 188.422C316.963 195.383 323.941 199.734 330.919 198.145C337.936 196.518 342.259 189.557 340.666 182.596C339.035 175.635 332.057 171.284 325.079 172.873C318.063 174.5 313.701 181.461 315.332 188.422Z" fill="#FCC9A7"/>
<path d="M293.716 268.549L312.033 268.89L299.215 295.371L285.372 269.987L293.716 268.549Z" fill="#0C2C40"/>
<path d="M327.734 241.802L304.145 269.268L319.504 286.859L347.758 248.12C347.758 248.12 340.515 236.506 327.734 241.802Z" fill="#FFF7F3"/>
<path d="M293.716 268.549L280.139 283.833L270.581 259.999C270.581 259.999 273.085 249.293 280.897 251.336L293.716 268.549Z" fill="#FFF7F3"/>
<path d="M298.721 286.821C298.721 286.821 281.011 332.9 285.41 398.273L302.855 414.162L323.221 394.603L301.263 283.833L298.721 286.821Z" fill="#0C2C40"/>
<path d="M331.83 396.23L293.905 408.676L291.402 430.884L341.69 415.902L331.83 396.23Z" fill="#FCC9A7"/>
<path d="M299.556 423.355C299.556 436.331 289.012 446.886 275.966 446.886C262.958 446.886 252.377 436.369 252.377 423.355C252.377 410.379 262.92 399.824 275.966 399.824C288.974 399.824 299.556 410.341 299.556 423.355Z" fill="#FCC9A7"/>
<path d="M294.398 436.104H228.485C228.485 436.104 188.322 433.872 185.933 466.747C183.544 499.623 249.343 599.725 258.938 649.927L314.081 645.387L269.861 502.725L368.617 503.293C375.937 503.33 383.218 502.271 390.12 499.888C409.348 493.229 438.702 483.696 422.698 430.883L294.398 436.104Z" fill="#0C2C40"/>
<path d="M95.5581 319.848H209.522C213.277 319.848 216.5 322.459 217.297 326.128L238.762 426.533C239.824 431.451 236.032 436.104 230.988 436.104H115.127C111.335 436.104 108.073 433.418 107.353 429.71L87.7836 329.306C86.7976 324.388 90.5521 319.848 95.5581 319.848Z" fill="#B2B2B2"/>
<path d="M88.9972 319.848H202.923C206.678 319.848 209.902 322.459 210.698 326.128L232.163 426.533C233.225 431.451 229.471 436.104 224.389 436.104H108.566C104.774 436.104 101.512 433.418 100.792 429.71L81.2227 329.306C80.2366 324.388 83.9912 319.848 88.9972 319.848Z" fill="#D1D1D1"/>
<path d="M235.653 427.516H313.513C315.902 427.516 317.798 429.445 317.798 431.791C317.798 434.174 315.864 436.066 313.513 436.066H234.136L235.653 427.516Z" fill="#B2B2B2"/>
<path d="M159.538 375.347C159.538 382.194 154.001 387.718 147.136 387.718C140.272 387.718 134.735 382.157 134.735 375.347C134.735 368.499 140.31 362.976 147.136 362.976C154.001 362.976 159.538 368.499 159.538 375.347Z" fill="white"/>
<path d="M362.17 294.615L403.811 361.69L304.145 397.176L317.798 426.608C317.798 426.608 403.015 417.075 444.201 385.41C447.994 382.497 449.89 377.768 449.245 373.039C447.311 357.907 439.043 321.172 403.811 268.965C396.643 258.334 382.384 255.119 371.272 261.55C359.705 268.208 355.647 282.963 362.17 294.615Z" fill="#F7EBE7"/>
</svg>
