<svg width="25" height="20" viewBox="0 0 25 20" fill="none" xmlns="http://www.w3.org/2000/svg">
<path d="M20.6786 0.890625H4.17857C3.24084 0.890625 2.34151 1.26349 1.67844 1.92719C1.01536 2.5909 0.642853 3.49107 0.642853 4.42969V16.2266C0.642853 17.1652 1.01536 18.0654 1.67844 18.7291C2.34151 19.3928 3.24084 19.7656 4.17857 19.7656H20.6786C21.6163 19.7656 22.5156 19.3928 23.1787 18.7291C23.8418 18.0654 24.2143 17.1652 24.2143 16.2266V4.42969C24.2143 3.49107 23.8418 2.5909 23.1787 1.92719C22.5156 1.26349 21.6163 0.890625 20.6786 0.890625ZM20.6786 3.25L13.0179 8.5232C12.8387 8.62674 12.6355 8.68125 12.4286 8.68125C12.2217 8.68125 12.0184 8.62674 11.8393 8.5232L4.17857 3.25H20.6786Z" fill="white"/>
</svg>
