<svg width="27" height="27" viewBox="0 0 27 27" fill="none" xmlns="http://www.w3.org/2000/svg">
<path d="M18.2359 0.398194C16.9346 0.397895 15.6513 0.70274 14.4888 1.2883C13.3264 1.87386 12.3171 2.72386 11.5419 3.77017C10.7667 4.81648 10.2471 6.03002 10.0248 7.31353C9.80248 8.59704 9.88359 9.91484 10.2616 11.1613L0.64286 20.7899V26.3513H6.19857L15.8174 16.7227C16.9636 17.071 18.1714 17.1678 19.3584 17.0066C20.5454 16.8454 21.6837 16.4299 22.6958 15.7884C23.7079 15.147 24.5699 14.2947 25.2232 13.2896C25.8764 12.2845 26.3055 11.1502 26.4813 9.96408C26.657 8.77795 26.5752 7.56784 26.2415 6.41621C25.9078 5.26458 25.33 4.1985 24.5474 3.29063C23.7649 2.38276 22.796 1.65444 21.7068 1.15529C20.6177 0.656148 19.4338 0.397915 18.2359 0.398194V0.398194ZM18.2359 15.2286C17.5984 15.2282 16.9645 15.1339 16.3544 14.9486L15.2923 14.6261L14.5081 15.4111L11.5626 18.3596L10.2857 17.0823L8.97642 18.393L10.2533 19.6712L8.78475 21.1412L7.50786 19.863L6.19857 21.1737L7.47546 22.4519L5.43188 24.4975H2.49476V21.5574L11.5709 12.472L12.3561 11.6869L12.0339 10.6237C11.6381 9.31772 11.6639 7.92004 12.1074 6.62951C12.5509 5.33897 13.3897 4.2213 14.5044 3.43547C15.6191 2.64965 16.9529 2.23569 18.3162 2.25248C19.6795 2.26927 21.0028 2.71595 22.0978 3.52899C23.1929 4.34203 24.0039 5.48002 24.4156 6.78109C24.8273 8.08216 24.8186 9.48004 24.3909 10.7759C23.9631 12.0718 23.1381 13.1996 22.033 13.999C20.928 14.7984 19.5993 15.2287 18.2359 15.2286V15.2286Z" fill="white"/>
</svg>
