<svg width="29" height="28" viewBox="0 0 29 28" fill="none" xmlns="http://www.w3.org/2000/svg">
<path d="M14.7139 2.54053C11.6005 2.57843 8.62578 3.77607 6.42408 5.87804C4.22238 7.98001 2.96793 10.82 2.92822 13.7924C2.94278 15.524 3.37575 17.229 4.19343 18.7746C5.01111 20.3203 6.19144 21.665 7.64251 22.7039V22.7939H7.76037C9.7559 24.2538 12.1999 25.045 14.7139 25.045C17.228 25.045 19.672 24.2538 21.6675 22.7939H21.7854V22.7039C23.2364 21.665 24.4168 20.3203 25.2344 18.7746C26.0521 17.229 26.4851 15.524 26.4996 13.7924C26.4599 10.82 25.2055 7.98001 23.0038 5.87804C20.8021 3.77607 17.8274 2.57843 14.7139 2.54053ZM10.0822 21.5899C10.2542 20.8377 10.6905 20.1642 11.3186 19.6812C11.9467 19.1982 12.7289 18.9347 13.5354 18.9345H15.8925C16.699 18.9347 17.4812 19.1982 18.1093 19.6812C18.7374 20.1642 19.1737 20.8377 19.3457 21.5899C17.9419 22.3785 16.3427 22.7943 14.7139 22.7943C13.0851 22.7943 11.486 22.3785 10.0822 21.5899ZM21.3257 20.1384C20.8774 19.1156 20.1225 18.242 19.1559 17.6274C18.1892 17.0129 17.0539 16.6847 15.8925 16.6841H13.5354C12.374 16.6847 11.2386 17.0129 10.272 17.6274C9.30533 18.242 8.55045 19.1156 8.10215 20.1384C7.219 19.3092 6.51568 18.3219 6.03236 17.233C5.54904 16.1441 5.29521 14.975 5.28537 13.7924C5.31593 11.4141 6.31911 9.14147 8.08073 7.45965C9.84235 5.77782 12.2228 4.82008 14.7139 4.7909C17.2051 4.82008 19.5855 5.77782 21.3471 7.45965C23.1088 9.14147 24.1119 11.4141 24.1425 13.7924C24.1327 14.975 23.8788 16.1441 23.3955 17.233C22.9122 18.3219 22.2089 19.3092 21.3257 20.1384Z" fill="white"/>
<path d="M14.7141 7.04123C14.091 7.02738 13.4715 7.13432 12.893 7.3556C12.3144 7.57688 11.7889 7.90789 11.3482 8.32862C10.9076 8.74934 10.5608 9.25104 10.3291 9.80336C10.0973 10.3557 9.98527 10.9471 9.99979 11.542C9.98527 12.1368 10.0973 12.7283 10.3291 13.2806C10.5608 13.8329 10.9076 14.3346 11.3482 14.7553C11.7889 15.1761 12.3144 15.5071 12.893 15.7284C13.4715 15.9496 14.091 16.0566 14.7141 16.0427C15.3371 16.0566 15.9567 15.9496 16.5352 15.7284C17.1137 15.5071 17.6392 15.1761 18.0799 14.7553C18.5206 14.3346 18.8673 13.8329 19.0991 13.2806C19.3309 12.7283 19.4429 12.1368 19.4284 11.542C19.4429 10.9471 19.3309 10.3557 19.0991 9.80336C18.8673 9.25104 18.5206 8.74934 18.0799 8.32862C17.6392 7.90789 17.1137 7.57688 16.5352 7.3556C15.9567 7.13432 15.3371 7.02738 14.7141 7.04123ZM14.7141 13.7924C14.4005 13.8068 14.0872 13.7585 13.7944 13.6505C13.5016 13.5426 13.2356 13.3773 13.0136 13.1654C12.7916 12.9535 12.6186 12.6996 12.5055 12.42C12.3924 12.1404 12.3418 11.8413 12.3569 11.542C12.3418 11.2426 12.3924 10.9435 12.5055 10.664C12.6186 10.3844 12.7916 10.1305 13.0136 9.91856C13.2356 9.70663 13.5016 9.54138 13.7944 9.43341C14.0872 9.32543 14.4005 9.27713 14.7141 9.2916C15.0276 9.27713 15.3409 9.32543 15.6337 9.43341C15.9266 9.54138 16.1925 9.70663 16.4145 9.91856C16.6365 10.1305 16.8096 10.3844 16.9227 10.664C17.0358 10.9435 17.0864 11.2426 17.0712 11.542C17.0864 11.8413 17.0358 12.1404 16.9227 12.42C16.8096 12.6996 16.6365 12.9535 16.4145 13.1654C16.1925 13.3773 15.9266 13.5426 15.6337 13.6505C15.3409 13.7585 15.0276 13.8068 14.7141 13.7924Z" fill="white"/>
</svg>
